# xmcd
#
# Track frame offsets:
#	150
#	38727
#	96412
#	123214
#	155527
#	190552
#	219309
#	242612
#	278799
#
# Disc length: 4134 seconds
#
# Revision: 0
# Processed by: cddbd v1.5.1PL0 Copyright (c) Steve Scherf et al.
# Submitted via: audiograbber 1.83.01
#
DISCID=71102409
DTITLE=Eric Clapton - Blues CD2
DYEAR=1999
DGENRE=Blues
TTITLE0=Stormy Monday (Live)
TTITLE1=Worried Life Blues
TTITLE2=Early In The Morning
TTITLE3=Have You Ever Loved A Woman
TTITLE4=Wonderful Tonight
TTITLE5=Kind Hearted Woman
TTITLE6=Double Trouble
TTITLE7=Driftin' Blues
TTITLE8=Crossroads
EXTD=
EXTT0=
EXTT1=
EXTT2=
EXTT3=
EXTT4=
EXTT5=
EXTT6=
EXTT7=
EXTT8=
PLAYORDER=
